<svg width="74" height="72" viewBox="0 0 74 72" fill="none" xmlns="http://www.w3.org/2000/svg">
<path d="M63.431 25.9345C61.0936 25.9412 58.8245 26.6916 56.9793 28.0683C55.1341 29.4449 53.817 31.3699 53.2345 33.5417H41.912C41.5377 32.1117 40.8402 30.7781 39.869 29.6355C38.8978 28.4929 37.6766 27.5691 36.2918 26.9296C34.9071 26.2902 33.3928 25.9506 31.8561 25.9351C30.3194 25.9196 28.798 26.2284 27.3995 26.8398L19.0029 16.773C20.3846 15.033 21.1363 12.9077 21.1437 10.7203C21.1437 8.71419 20.5236 6.75317 19.362 5.08518C18.2003 3.4172 16.5492 2.11716 14.6175 1.34948C12.6858 0.581787 10.5601 0.380925 8.50937 0.772289C6.45864 1.16365 4.57492 2.12967 3.09642 3.54817C1.61792 4.96667 0.611056 6.77396 0.203139 8.74148C-0.204777 10.709 0.00458057 12.7484 0.804737 14.6018C1.60489 16.4551 2.95991 18.0392 4.69844 19.1537C6.43697 20.2682 8.48092 20.8631 10.5718 20.8631C12.0618 20.8567 13.5335 20.5482 14.8904 19.9579L23.2845 30.0246C21.8969 31.7616 21.1449 33.889 21.1449 36.0774C21.1449 38.2658 21.8969 40.3932 23.2845 42.1301L14.8904 52.1969C13.5335 51.6066 12.0618 51.2981 10.5718 51.2917C8.48092 51.2917 6.43697 51.8865 4.69844 53.0011C2.95991 54.1156 1.60489 55.6997 0.804737 57.553C0.00458057 59.4064 -0.204777 61.4458 0.203139 63.4133C0.611056 65.3808 1.61792 67.1881 3.09642 68.6066C4.57492 70.0251 6.45864 70.9911 8.50937 71.3825C10.5601 71.7739 12.6858 71.573 14.6175 70.8053C16.5492 70.0376 18.2003 68.7376 19.362 67.0696C20.5236 65.4016 21.1437 63.4406 21.1437 61.4345C21.1363 59.2471 20.3846 57.1218 19.0029 55.3818L27.3969 45.315C28.7955 45.9268 30.3172 46.236 31.8542 46.2207C33.3912 46.2054 34.9059 45.866 36.2909 45.2265C37.6759 44.587 38.8974 43.6631 39.8689 42.5202C40.8403 41.3773 41.5378 40.0434 41.912 38.6131H53.2345C53.7322 40.4453 54.7553 42.1069 56.1879 43.4092C57.6204 44.7116 59.4048 45.6024 61.3385 45.9807C63.2722 46.3589 65.2777 46.2093 67.1272 45.549C68.9768 44.8887 70.5963 43.744 71.8019 42.2449C73.0075 40.7459 73.7508 38.9526 73.9475 37.0686C74.1441 35.1846 73.7862 33.2855 72.9145 31.5869C72.0427 29.8882 70.6919 28.4581 69.0156 27.459C67.3392 26.4599 65.4045 25.9317 63.431 25.9345ZM5.28592 10.7203C5.28592 9.71722 5.59593 8.73671 6.17676 7.90272C6.75758 7.06873 7.58313 6.41871 8.549 6.03486C9.51488 5.65102 10.5777 5.55059 11.6031 5.74627C12.6284 5.94195 13.5703 6.42496 14.3095 7.13421C15.0488 7.84346 15.5522 8.74711 15.7562 9.73087C15.9601 10.7146 15.8555 11.7343 15.4554 12.661C15.0553 13.5877 14.3778 14.3797 13.5085 14.937C12.6393 15.4942 11.6173 15.7917 10.5718 15.7917C9.16992 15.7917 7.82543 15.2574 6.83413 14.3063C5.84283 13.3552 5.28592 12.0653 5.28592 10.7203ZM10.5718 66.506C9.52638 66.506 8.5044 66.2085 7.63514 65.6513C6.76587 65.094 6.08836 64.302 5.68829 63.3753C5.28821 62.4486 5.18353 61.4289 5.38749 60.4451C5.59144 59.4614 6.09488 58.5577 6.83413 57.8485C7.57338 57.1392 8.51524 56.6562 9.5406 56.4605C10.566 56.2649 11.6288 56.3653 12.5947 56.7491C13.5605 57.133 14.3861 57.783 14.9669 58.617C15.5477 59.451 15.8577 60.4315 15.8577 61.4345C15.8577 62.7796 15.3008 64.0695 14.3095 65.0206C13.3182 65.9716 11.9737 66.506 10.5718 66.506ZM31.7155 41.1488C30.67 41.1488 29.6481 40.8514 28.7788 40.2941C27.9095 39.7369 27.232 38.9448 26.8319 38.0181C26.4319 37.0915 26.3272 36.0718 26.5311 35.088C26.7351 34.1042 27.2385 33.2006 27.9778 32.4914C28.717 31.7821 29.6589 31.2991 30.6843 31.1034C31.7096 30.9077 32.7725 31.0082 33.7383 31.392C34.7042 31.7758 35.5297 32.4259 36.1106 33.2599C36.6914 34.0938 37.0014 35.0744 37.0014 36.0774C37.0014 37.4224 36.4445 38.7124 35.4532 39.6634C34.4619 40.6145 33.1174 41.1488 31.7155 41.1488ZM63.431 41.1488C62.3855 41.1488 61.3635 40.8514 60.4943 40.2941C59.625 39.7369 58.9475 38.9448 58.5474 38.0181C58.1474 37.0915 58.0427 36.0718 58.2466 35.088C58.4506 34.1042 58.954 33.2006 59.6933 32.4914C60.4325 31.7821 61.3744 31.2991 62.3998 31.1034C63.4251 30.9077 64.4879 31.0082 65.4538 31.392C66.4197 31.7758 67.2452 32.4259 67.8261 33.2599C68.4069 34.0938 68.7169 35.0744 68.7169 36.0774C68.7169 37.4224 68.16 38.7124 67.1687 39.6634C66.1774 40.6145 64.8329 41.1488 63.431 41.1488Z" fill="#267DCA"/>
</svg>
