<svg width="74" height="72" viewBox="0 0 74 72" fill="none" xmlns="http://www.w3.org/2000/svg">
<path d="M33.4141 31.776C33.4141 30.5867 32.4521 29.6223 31.265 29.6223H26.455C27.4571 24.7115 31.7954 21.0195 37 21.0195C42.2047 21.0195 46.5429 24.7174 47.5419 29.6282H39.8675C38.6804 29.6282 37.7184 30.5897 37.7184 31.776C37.7184 32.9652 38.6804 33.9296 39.8675 33.9296H47.7547V38.2311H39.8675C38.6804 38.2311 37.7184 39.1955 37.7184 40.3818C37.7184 41.571 38.6804 42.5354 39.8675 42.5354H47.5419C46.6848 46.7511 43.3671 50.0703 39.1522 50.9253V57.5963C39.1522 58.7826 38.1871 59.747 37 59.747C35.8129 59.747 34.8479 58.7826 34.8479 57.5963V50.9253C30.6329 50.0673 27.3153 46.7511 26.4612 42.5354H31.2619C32.4521 42.5354 33.4141 41.571 33.4141 40.3818C33.4141 39.1925 32.4521 38.2311 31.265 38.2311H26.2454V33.9296H31.2619C32.4521 33.9296 33.4141 32.9652 33.4141 31.7789" fill="#267DCA"/>
<path d="M37 12.4107C26.7325 12.4107 18.3335 20.4012 17.6798 30.5039C16.5668 29.9242 15.3202 29.6211 14.0538 29.6223C9.69704 29.6223 6.16663 33.1545 6.16663 37.5122V43.2513C6.16663 47.606 9.69704 51.1382 14.0538 51.1382C14.2018 51.1382 14.3488 51.1343 14.4947 51.1264V51.1382C18.6079 51.1382 21.941 47.8042 21.941 43.6892V31.773C21.941 23.4571 28.6842 16.7151 37 16.7151C45.3157 16.7151 52.059 23.4571 52.059 31.773V43.6892C52.059 47.8012 55.389 51.1382 59.5052 51.1382V51.1264C59.6491 51.1343 59.7961 51.1382 59.9461 51.1382C64.3029 51.1382 67.8333 47.606 67.8333 43.2484V37.5092C67.8333 33.1545 64.3029 29.6223 59.9461 29.6223C58.6388 29.6223 57.4055 29.9418 56.3201 30.5039C55.6665 20.4012 47.2644 12.4107 37 12.4107Z" fill="#267DCA"/>
</svg>
