<svg width="74" height="72" viewBox="0 0 74 72" fill="none" xmlns="http://www.w3.org/2000/svg">
<path d="M64.7499 55.7986H61.6666V11.4236C61.6666 10.639 61.3417 9.88652 60.7635 9.33173C60.1852 8.77693 59.401 8.46525 58.5832 8.46525C57.7655 8.46525 56.9812 8.77693 56.403 9.33173C55.8247 9.88652 55.4999 10.639 55.4999 11.4236V55.7986H49.3332V23.2569C49.3332 22.4723 49.0084 21.7199 48.4301 21.1651C47.8519 20.6103 47.0676 20.2986 46.2499 20.2986C45.4321 20.2986 44.6479 20.6103 44.0697 21.1651C43.4914 21.7199 43.1666 22.4723 43.1666 23.2569V55.7986H36.9999V35.0902C36.9999 34.3057 36.675 33.5532 36.0968 32.9984C35.5186 32.4436 34.7343 32.1319 33.9166 32.1319C33.0988 32.1319 32.3146 32.4436 31.7363 32.9984C31.1581 33.5532 30.8332 34.3057 30.8332 35.0902V55.7986H24.6666V46.9236C24.6666 46.139 24.3417 45.3865 23.7635 44.8317C23.1852 44.2769 22.401 43.9652 21.5832 43.9652C20.7655 43.9652 19.9812 44.2769 19.403 44.8317C18.8247 45.3865 18.4999 46.139 18.4999 46.9236V55.7986H12.3332V5.50692C12.3332 4.72232 12.0084 3.96985 11.4301 3.41506C10.8519 2.86026 10.0676 2.54858 9.2499 2.54858C8.43215 2.54858 7.64789 2.86026 7.06965 3.41506C6.49142 3.96985 6.16656 4.72232 6.16656 5.50692V58.7569C6.16656 59.5415 6.49142 60.294 7.06965 60.8488C7.64789 61.4036 8.43215 61.7152 9.2499 61.7152H64.7499C65.5676 61.7152 66.3519 61.4036 66.9301 60.8488C67.5084 60.294 67.8332 59.5415 67.8332 58.7569C67.8332 57.9723 67.5084 57.2199 66.9301 56.6651C66.3519 56.1103 65.5676 55.7986 64.7499 55.7986Z" fill="#267DCA"/>
</svg>
